<svg xmlns="http://www.w3.org/2000/svg" xmlns:xlink="http://www.w3.org/1999/xlink" viewBox="0 0 266.67 111.75"><defs><style>.cls-1{stroke-miterlimit:10;stroke-width:0.75px;fill:url(#linear-gradient);stroke:url(#linear-gradient-2);}.cls-2{fill:#525353;}</style><linearGradient id="linear-gradient" x1="262.52" y1="18.17" x2="192.34" y2="88.35" gradientUnits="userSpaceOnUse"><stop offset="0" stop-color="#208ccc"/><stop offset="0.94" stop-color="#5c4a7a"/></linearGradient><linearGradient id="linear-gradient-2" x1="262.24" y1="18.45" x2="192.08" y2="88.61" xlink:href="#linear-gradient"/></defs><title>logo-light</title><g id="Layer_2" data-name="Layer 2"><g id="Layer_1-2" data-name="Layer 1"><path class="cls-1" d="M254.94,46C240.3,31.17,225.51,16.48,210.77,1.76h0a4.73,4.73,0,0,0-6.13-.48c-17.9,12.93-20.28,40.44-4,56.87C211.09,68.75,222,79,233.38,90.08l.38.34c.29.25-.27.36-.27.36-6.32,1.18-11.65-.21-15.73-4.15l-4.23-4.38a30.67,30.67,0,0,0-17.29-8.87,127.94,127.94,0,0,0-14.37-1.22,1.57,1.57,0,0,0-1.21,2.63l9.08,9.85h0c.1.14,3,4.2,13.69,14.78,12.72,12.58,33.51,16.21,46.68,6.13h0c4.35-3.2,8.7-8.93,11.32-13.76A38.16,38.16,0,0,0,254.94,46Zm-41.52-2.15a16.27,16.27,0,0,1-4.49-13.14,1.59,1.59,0,0,1,2.53-1.16,7.35,7.35,0,0,1,.67.56c9.67,9.63,19.36,19.23,28.93,29,4.81,4.91,6.58,9.57,5.68,14.6a1.57,1.57,0,0,1-2.65.84C233.81,64.29,223.46,54.21,213.42,43.84Z"/><path class="cls-2" d="M24.91,81.83a5.31,5.31,0,0,0,1.55,1.07,4.63,4.63,0,0,0,1.87.38,4.71,4.71,0,0,0,1.85-.38,5.07,5.07,0,0,0,1.58-1.07,5.25,5.25,0,0,0,1.07-1.55,4.63,4.63,0,0,0,0-3.72,5,5,0,0,0-2.65-2.65,4.55,4.55,0,0,0-1.85-.39,4.47,4.47,0,0,0-1.87.39A5.12,5.12,0,0,0,24.91,75a4.91,4.91,0,0,0-1.07,1.58,4.63,4.63,0,0,0,0,3.72A5.25,5.25,0,0,0,24.91,81.83Z"/><path class="cls-2" d="M14.73,82.9A4.78,4.78,0,0,0,20,81.83a4.72,4.72,0,0,0,1.46-3.43,4.5,4.5,0,0,0-.39-1.84A5.07,5.07,0,0,0,20,75a5,5,0,0,0-1.58-1.07,4.57,4.57,0,0,0-1.84-.39,4.52,4.52,0,0,0-1.88.39A5.12,5.12,0,0,0,13.18,75a4.91,4.91,0,0,0-1.07,1.58,4.63,4.63,0,0,0,0,3.72,5.25,5.25,0,0,0,1.07,1.55A5.31,5.31,0,0,0,14.73,82.9Z"/><path class="cls-2" d="M73.23,27.76a5.44,5.44,0,0,0,1.55,1.07,4.78,4.78,0,0,0,5.3-1.07,4.72,4.72,0,0,0,1.46-3.43,4.5,4.5,0,0,0-.39-1.84,5,5,0,0,0-2.65-2.65,4.63,4.63,0,0,0-3.72,0,5.25,5.25,0,0,0-1.55,1.07,5.07,5.07,0,0,0-1.07,1.58,4.74,4.74,0,0,0,0,3.72A5.44,5.44,0,0,0,73.23,27.76Z"/><path class="cls-2" d="M85,27.76a5.31,5.31,0,0,0,1.55,1.07,4.68,4.68,0,0,0,1.88.38,4.79,4.79,0,0,0,1.85-.38,5.27,5.27,0,0,0,1.57-1.07,5.48,5.48,0,0,0,1.08-1.55,4.74,4.74,0,0,0,0-3.72,5.14,5.14,0,0,0-2.65-2.65,4.62,4.62,0,0,0-1.85-.39,4.52,4.52,0,0,0-1.88.39A5.12,5.12,0,0,0,85,20.91a4.91,4.91,0,0,0-1.07,1.58,4.63,4.63,0,0,0,0,3.72A5.25,5.25,0,0,0,85,27.76Z"/><path class="cls-2" d="M108.61,27.76a5.18,5.18,0,0,0,1.55,1.07,4.6,4.6,0,0,0,1.87.38,4.79,4.79,0,0,0,1.85-.38,5.32,5.32,0,0,0,1.58-1.07,5.44,5.44,0,0,0,1.07-1.55,4.63,4.63,0,0,0,0-3.72,5.07,5.07,0,0,0-1.07-1.58,5.13,5.13,0,0,0-1.58-1.07,4.62,4.62,0,0,0-1.85-.39,4.44,4.44,0,0,0-1.87.39,5,5,0,0,0-1.55,1.07,4.94,4.94,0,0,0-1.08,1.58,4.74,4.74,0,0,0,0,3.72A5.28,5.28,0,0,0,108.61,27.76Z"/><path class="cls-2" d="M171.79,57.23a14.62,14.62,0,0,0,3.45-4.64,13.75,13.75,0,0,0,1.28-6,15.22,15.22,0,0,0-.9-5.17,12.67,12.67,0,0,0-2.79-4.59A14.21,14.21,0,0,0,168,33.56a18,18,0,0,0-7.05-1.25,16.36,16.36,0,0,0-6.49,1.25,22.36,22.36,0,0,0-5.09,3,22.64,22.64,0,0,0-3.66,3.57,24.92,24.92,0,0,0-2.21,3.1V40.65a4.27,4.27,0,0,0-4.22-4.23,4.17,4.17,0,0,0-3.05,1.25,4.07,4.07,0,0,0-1.24,3V53h-9.59a14.85,14.85,0,0,0,1.34-2.89,10,10,0,0,0,.51-3.19,13.85,13.85,0,0,0-1.17-5.68,15.05,15.05,0,0,0-3.13-4.65,14.61,14.61,0,0,0-4.61-3.16,14,14,0,0,0-5.68-1.16,14.48,14.48,0,0,0-5.75,1.16,14.78,14.78,0,0,0-4.7,3.16A15,15,0,0,0,99,41.28,13.84,13.84,0,0,0,97.86,47a10.29,10.29,0,0,0,.5,3.19A13.06,13.06,0,0,0,99.76,53H95.3a15.13,15.13,0,0,1-3.37-.37,9.4,9.4,0,0,1-2.77-1.06,5.67,5.67,0,0,1-1.88-1.79,4.61,4.61,0,0,1-.68-2.5V40.06a4.26,4.26,0,0,0-8.51,0v7.26a4.53,4.53,0,0,1-.69,2.5,5.73,5.73,0,0,1-1.84,1.79,9,9,0,0,1-2.74,1.06,15.2,15.2,0,0,1-3.37.37H68a4.34,4.34,0,0,1-3.09-1.11,12.55,12.55,0,0,1-2.44-3.54l-2.56-4.7a23.83,23.83,0,0,0-1.88-3,12.17,12.17,0,0,0-2.41-2.5,10.66,10.66,0,0,0-3.25-1.7A14,14,0,0,0,48,35.82a12.41,12.41,0,0,0-4.86.87,10.11,10.11,0,0,0-3.36,2.2,8.69,8.69,0,0,0-1.94,3,9.58,9.58,0,0,0-.63,3.33,8.73,8.73,0,0,0,1,3.81l4.11,8.46c.2.44.37.83.5,1.16a2.28,2.28,0,0,1,.21.92c0,1.4-1.54,2.09-4.64,2.09H22.47A14.43,14.43,0,0,1,17.8,61a7.63,7.63,0,0,1-3-1.76s1.28,1.47,0,0-7-13.38-7-13.38A4,4,0,0,0,2.42,44.2l-.29.15A4,4,0,0,0,.45,49.72L7.07,62.36a10.67,10.67,0,0,0,6.78,6.21A28.54,28.54,0,0,0,22.35,70h17A18.68,18.68,0,0,0,44,69.38a14.1,14.1,0,0,0,4-1.64,9.11,9.11,0,0,0,2.8-2.65,6.38,6.38,0,0,0,1.07-3.66,9.64,9.64,0,0,0-.45-2.83,16.65,16.65,0,0,0-1.22-2.89l-2.27-4.34c-.19-.36-.4-.77-.62-1.22l-.66-1.37a11.25,11.25,0,0,1-.53-1.31,3.52,3.52,0,0,1-.21-1.1,2.16,2.16,0,0,1,.72-1.55,2.63,2.63,0,0,1,2-.72,3.59,3.59,0,0,1,2.65,1.2A15.5,15.5,0,0,1,53.67,49L55.87,53a19.74,19.74,0,0,0,4.74,6.16,10,10,0,0,0,6.58,2.17h2.27a22.5,22.5,0,0,0,8.15-1.22,9,9,0,0,0,4.76-4.44A8.71,8.71,0,0,0,87.05,60a22,22,0,0,0,8.25,1.31h65.62a16.58,16.58,0,0,0,5.87-1.07A16.12,16.12,0,0,0,171.79,57.23ZM117.24,51a6,6,0,0,1-3.78,2h-1.85a6,6,0,0,1-5.24-6,6.24,6.24,0,0,1,.48-2.41,6.38,6.38,0,0,1,1.34-2,6.68,6.68,0,0,1,2-1.43,5.54,5.54,0,0,1,4.77,0,6.75,6.75,0,0,1,3.34,3.48,6.42,6.42,0,0,1,.47,2.41A5.84,5.84,0,0,1,117.24,51Zm40.94,2H143.47a35.36,35.36,0,0,1,8.93-9.33,15.85,15.85,0,0,1,8.7-3.12,10.74,10.74,0,0,1,2.62.32,6.23,6.23,0,0,1,2.2,1.05,5.2,5.2,0,0,1,1.52,1.82,5.53,5.53,0,0,1,.57,2.59,5.82,5.82,0,0,1-2.39,4.82Q163.24,53,158.18,53Z"/><path class="cls-2" d="M70.18,77.44a1.7,1.7,0,0,0-1.61,1.09L63.1,93,57.8,79a1.73,1.73,0,0,0-1.65-1.13A1.79,1.79,0,0,0,54.54,79L49.07,93,43.55,78.53A1.68,1.68,0,0,0,42,77.44a1.78,1.78,0,0,0-1.75,1.74,1.69,1.69,0,0,0,.14.65l7.08,18.25a1.76,1.76,0,0,0,3.25,0l5.48-14,5.3,14a1.73,1.73,0,0,0,1.61,1.13,1.7,1.7,0,0,0,1.61-1.09l7.12-18.25a1.68,1.68,0,0,0,.13-.65A1.74,1.74,0,0,0,70.18,77.44Z"/><path class="cls-2" d="M81.41,77.44h-5a1.65,1.65,0,0,0,0,3.3h4.87c3.64,0,4.69,2.44,4.69,4.7v1.17a6.59,6.59,0,0,0-4.53-1.7,7.27,7.27,0,0,0-7.25,7.26,7.89,7.89,0,0,0,7.61,7.65,7.65,7.65,0,0,0,7.64-7.65V85.53C89.49,81.48,87.36,77.44,81.41,77.44Zm.26,19.29A4.37,4.37,0,1,1,86,92.39,4.36,4.36,0,0,1,81.67,96.73Z"/><path class="cls-2" d="M100,85.87c-.7-.13-3-.65-3-2.56,0-1.56,1-2.57,3.13-2.57h1.7a1.65,1.65,0,1,0,0-3.3h-1.7c-4,0-6.52,2.65-6.52,5.87,0,2.87,2.26,5.26,5.61,5.91,1.34.26,3.56,1.17,3.56,3.6a3.68,3.68,0,0,1-4,3.7,3.56,3.56,0,0,1-2.78-1.66,1.62,1.62,0,0,0-1.31-.69,1.59,1.59,0,0,0-1.69,1.56,1.69,1.69,0,0,0,.35,1,6.73,6.73,0,0,0,5.73,3.13,7.06,7.06,0,0,0,7-7C106.23,89.35,103.88,86.7,100,85.87Z"/><path class="cls-2" d="M118.23,69.88h2a1.65,1.65,0,0,0,0-3.3H118.1c-4.39,0-7.08,2.7-7.08,7.09v3.77h-1.78a1.65,1.65,0,1,0,0,3.3H111V97.39a1.76,1.76,0,0,0,1.78,1.78,1.74,1.74,0,0,0,1.69-1.74V80.74h5.74a1.65,1.65,0,0,0,0-3.3h-5.74V73.75C114.49,71.19,115.84,69.88,118.23,69.88Z"/><path class="cls-2" d="M131,77.44h-5a1.65,1.65,0,1,0,0,3.3h4.86c3.65,0,4.69,2.44,4.69,4.7v1.17a6.55,6.55,0,0,0-4.52-1.7,7.27,7.27,0,0,0-7.25,7.26,7.89,7.89,0,0,0,7.6,7.65,7.66,7.66,0,0,0,7.65-7.65V85.53C139.05,81.48,136.92,77.44,131,77.44Zm.26,19.29a4.37,4.37,0,1,1,4.34-4.34A4.36,4.36,0,0,1,131.23,96.73Z"/><path class="cls-2" d="M153.57,95.87H152c-2.35,0-3.43-1.18-3.43-3.44V80.74h4.95a1.65,1.65,0,0,0,0-3.3h-4.95V72.79a1.71,1.71,0,0,0-1.7-1.74,1.77,1.77,0,0,0-1.77,1.79v4.6h-1.53a1.65,1.65,0,0,0,0,3.3h1.53V92.56c0,4.13,2.47,6.61,6.6,6.61h1.91a1.65,1.65,0,1,0,0-3.3Z"/><path class="cls-2" d="M174.74,77.44A1.74,1.74,0,0,0,173,79.18V91.09a5.44,5.44,0,0,1-5.43,5.43c-3,0-5.43-2.22-5.43-6.13V79.18a1.72,1.72,0,0,0-1.74-1.74,1.74,1.74,0,0,0-1.74,1.74v11.3c0,5.51,3.61,9.34,8.6,9.34A8.27,8.27,0,0,0,173,97.43v3.78c0,3.56-1.87,5.51-5.56,5.51h-6.21a1.66,1.66,0,0,0,0,3.31h6.47c5.52,0,8.78-3.26,8.78-8.78V79.18A1.75,1.75,0,0,0,174.74,77.44Z"/></g></g></svg>